<svg xmlns="http://www.w3.org/2000/svg" width="1600" height="3" viewBox="0 0 1600 3">
  <defs>
    <style>
      .cls-1 {
        fill: #fff;
        fill-rule: evenodd;
      }
    </style>
  </defs>
  <path id="Waves_Divider" data-name="Waves Divider" class="cls-1" d="M64,50H1600V48.124c-5.33-3.88-10.67,3.877-16,0h0c-5.33-3.88-10.67,3.876-16,0v0c-5.33-3.88-10.66,3.877-16,0h0c-5.33-3.88-10.67,3.88-16,0h0c-5.33-3.88-10.67,3.877-16,0h0c-5.33-3.88-10.67,3.876-16,0v0c-5.33-3.88-10.66,3.877-16,0h0c-5.33-3.88-10.67,3.88-16,0s-10.67,3.877-16,0h0c-5.33-3.88-10.67,3.876-16,0v0c-5.33-3.88-10.66,3.877-16,0h0c-5.33-3.88-10.67,3.88-16,0s-10.67,3.877-16,0h0c-5.33-3.88-10.67,3.876-16,0v0c-5.33-3.88-10.66,3.877-16,0h0c-5.33-3.88-10.67,3.88-16,0s-10.67,3.877-16,0h0c-5.33-3.88-10.67,3.876-16,0v0c-5.33-3.88-10.66,3.877-16,0h0c-5.33-3.88-10.67,3.88-16,0s-10.67,3.877-16,0h0c-5.33-3.88-10.67,3.876-16,0v0c-5.33-3.88-10.66,3.877-16,0h0c-5.33-3.88-10.67,3.88-16,0s-10.67,3.877-16,0h0c-5.33-3.88-10.67,3.876-16,0v0c-5.33-3.88-10.66,3.877-16,0h0c-5.33-3.88-10.67,3.88-16,0s-10.67,3.877-16,0h0c-5.33-3.88-10.67,3.876-16,0v0c-5.33-3.88-10.66,3.877-16,0h0c-5.33-3.88-10.67,3.88-16,0s-10.67,3.877-16,0h0c-5.33-3.88-10.67,3.876-16,0v0c-5.33-3.88-10.66,3.877-16,0h0c-5.33-3.88-10.67,3.88-16,0s-10.67,3.877-16,0h0c-5.33-3.88-10.665,3.876-16,0v0c-5.333-3.88-10.667,3.877-16,0h0c-5.334-3.88-10.668,3.88-16,0s-10.666,3.877-16,0h0c-5.332-3.88-10.665,3.876-16,0v0c-5.333-3.88-10.667,3.877-16,0h0c-5.334-3.88-10.668,3.88-16,0s-10.667,3.877-16,0h0c-5.332-3.88-10.665,3.876-16,0v0c-5.333-3.88-10.667,3.877-16,0h0c-5.334-3.88-10.668,3.88-16,0s-10.666,3.877-16,0h0c-5.332-3.88-10.665,3.876-16,0v0c-5.333-3.88-10.666,3.877-16,0h0c-5.335-3.88-10.668,3.88-16,0s-10.667,3.877-16,0h0c-5.333-3.88-10.666,3.876-16,0v0c-5.333-3.88-10.666,3.877-16,0h0c-5.015-3.648-10.029,2.989-15.043.575V48.124c-5.341-3.88-10.681,3.877-16.022,0h0c-5.339-3.88-10.68,3.876-16.02,0v0c-5.34-3.88-10.681,3.877-16.022,0h0c-5.341-3.88-10.682,3.88-16.023,0s-10.682,3.877-16.022,0h0c-5.34-3.88-10.68,3.876-16.02,0v0c-5.341-3.88-10.682,3.877-16.022,0h0c-5.341-3.88-10.683,3.88-16.023,0s-10.682,3.877-16.022,0h0c-5.34-3.88-10.68,3.876-16.021,0v0c-5.34-3.88-10.68,3.877-16.021,0h0c-5.342-3.88-10.682,3.88-16.024,0s-10.681,3.877-16.022,0h0c-5.339-3.88-10.68,3.876-16.02,0v0c-5.34-3.88-10.681,3.877-16.021,0h0c-5.342-3.88-10.683,3.88-16.024,0s-10.681,3.877-16.021,0h0c-5.34-3.88-10.681,3.876-16.021,0v0c-5.341-3.88-10.681,3.877-16.021,0h0c-5.342-3.88-10.683,3.88-16.024,0s-10.681,3.877-16.022,0h0c-5.34-3.88-10.68,3.876-16.021,0v0c-5.34-3.88-10.68,3.877-16.021,0h0c-5.341-3.88-10.682,3.88-16.024,0s-10.681,3.877-16.021,0h0c-5.34-3.88-10.68,3.876-16.021,0v0c-5.34-3.88-10.681,3.877-16.021,0h0c-5.342-3.88-10.683,3.88-16.023,0s-10.682,3.877-16.022,0h0c-5.34-3.88-10.68,3.876-16.021,0v0c-5.341-3.88-10.681,3.877-16.021,0h0c-5.342-3.88-10.683,3.88-16.024,0s-10.681,3.877-16.022,0h0c-5.34-3.88-10.68,3.876-16.021,0v0c-5.34-3.88-10.68,3.877-16.021,0h0c-5.341-3.88-10.682,3.88-16.024,0s-10.681,3.877-16.021,0h0c-5.34-3.88-10.68,3.876-16.02,0v0c-5.341-3.88-10.681,3.877-16.021,0h0c-5.342-3.88-10.683,3.88-16.024,0s-10.681,3.877-16.022,0h0c-5.34-3.88-10.681,3.876-16.021,0v0c-5.341-3.88-10.681,3.877-16.021,0h0C10.682,44.244,5.341,52,0,48.124V50H64Z" transform="translate(0 -47)"/>
</svg>
